<mxfile host="app.diagrams.net" modified="2021-07-27T03:57:13.829Z" agent="5.0 (Windows NT 10.0; Win64; x64) AppleWebKit/537.36 (KHTML, like Gecko) Chrome/90.0.4430.72 Safari/537.36" etag="VI3PjuBNaophFan2IT0_" version="14.8.4" type="github">
  <diagram id="sfYAWN_819-ZRtIJ7BKl" name="第 1 页">
    <mxGraphModel dx="2591" dy="762" grid="1" gridSize="10" guides="1" tooltips="1" connect="1" arrows="1" fold="1" page="1" pageScale="1" pageWidth="1169" pageHeight="827" math="0" shadow="0">
      <root>
        <mxCell id="0" />
        <mxCell id="1" parent="0" />
        <mxCell id="UVDkIVhwBO7AHF0Bjt_--1" value="FileLine (final)" style="swimlane;fontStyle=1;align=center;verticalAlign=top;childLayout=stackLayout;horizontal=1;startSize=26;horizontalStack=0;resizeParent=1;resizeParentMax=0;resizeLast=0;collapsible=1;marginBottom=0;fillColor=#dae8fc;strokeColor=#6c8ebf;" vertex="1" parent="1">
          <mxGeometry x="-729" y="400" width="290" height="184" as="geometry">
            <mxRectangle x="-530" y="330" width="120" height="26" as="alternateBounds" />
          </mxGeometry>
        </mxCell>
        <mxCell id="UVDkIVhwBO7AHF0Bjt_--2" value="- m_contentp: VFileContent*" style="text;strokeColor=none;fillColor=none;align=left;verticalAlign=top;spacingLeft=4;spacingRight=4;overflow=hidden;rotatable=0;points=[[0,0.5],[1,0.5]];portConstraint=eastwest;" vertex="1" parent="UVDkIVhwBO7AHF0Bjt_--1">
          <mxGeometry y="26" width="290" height="25" as="geometry" />
        </mxCell>
        <mxCell id="UVDkIVhwBO7AHF0Bjt_--68" value="- m_filenameno: int" style="text;strokeColor=none;fillColor=none;align=left;verticalAlign=top;spacingLeft=4;spacingRight=4;overflow=hidden;rotatable=0;points=[[0,0.5],[1,0.5]];portConstraint=eastwest;" vertex="1" parent="UVDkIVhwBO7AHF0Bjt_--1">
          <mxGeometry y="51" width="290" height="25" as="geometry" />
        </mxCell>
        <mxCell id="UVDkIVhwBO7AHF0Bjt_--69" value="- m_firstLineno: int" style="text;strokeColor=none;fillColor=none;align=left;verticalAlign=top;spacingLeft=4;spacingRight=4;overflow=hidden;rotatable=0;points=[[0,0.5],[1,0.5]];portConstraint=eastwest;" vertex="1" parent="UVDkIVhwBO7AHF0Bjt_--1">
          <mxGeometry y="76" width="290" height="25" as="geometry" />
        </mxCell>
        <mxCell id="UVDkIVhwBO7AHF0Bjt_--67" value="- m_lastLineno: int" style="text;strokeColor=none;fillColor=none;align=left;verticalAlign=top;spacingLeft=4;spacingRight=4;overflow=hidden;rotatable=0;points=[[0,0.5],[1,0.5]];portConstraint=eastwest;" vertex="1" parent="UVDkIVhwBO7AHF0Bjt_--1">
          <mxGeometry y="101" width="290" height="25" as="geometry" />
        </mxCell>
        <mxCell id="UVDkIVhwBO7AHF0Bjt_--3" value="" style="line;strokeWidth=1;fillColor=none;align=left;verticalAlign=middle;spacingTop=-1;spacingLeft=3;spacingRight=3;rotatable=0;labelPosition=right;points=[];portConstraint=eastwest;" vertex="1" parent="UVDkIVhwBO7AHF0Bjt_--1">
          <mxGeometry y="126" width="290" height="8" as="geometry" />
        </mxCell>
        <mxCell id="UVDkIVhwBO7AHF0Bjt_--4" value="+ filename(const string&amp; name): void" style="text;strokeColor=none;fillColor=none;align=left;verticalAlign=top;spacingLeft=4;spacingRight=4;overflow=hidden;rotatable=0;points=[[0,0.5],[1,0.5]];portConstraint=eastwest;" vertex="1" parent="UVDkIVhwBO7AHF0Bjt_--1">
          <mxGeometry y="134" width="290" height="25" as="geometry" />
        </mxCell>
        <mxCell id="UVDkIVhwBO7AHF0Bjt_--8" value="+ filename(): string" style="text;strokeColor=none;fillColor=none;align=left;verticalAlign=top;spacingLeft=4;spacingRight=4;overflow=hidden;rotatable=0;points=[[0,0.5],[1,0.5]];portConstraint=eastwest;whiteSpace=wrap;" vertex="1" parent="UVDkIVhwBO7AHF0Bjt_--1">
          <mxGeometry y="159" width="290" height="25" as="geometry" />
        </mxCell>
        <mxCell id="UVDkIVhwBO7AHF0Bjt_--21" value="V3ParseImp (final)" style="swimlane;fontStyle=1;align=center;verticalAlign=top;childLayout=stackLayout;horizontal=1;startSize=26;horizontalStack=0;resizeParent=1;resizeParentMax=0;resizeLast=0;collapsible=1;marginBottom=0;fillColor=#dae8fc;strokeColor=#6c8ebf;" vertex="1" parent="1">
          <mxGeometry x="-340" y="40" width="220" height="226" as="geometry">
            <mxRectangle x="-276.5" y="404" width="140" height="26" as="alternateBounds" />
          </mxGeometry>
        </mxCell>
        <mxCell id="UVDkIVhwBO7AHF0Bjt_--22" value="- m_rootp: AstNetList*" style="text;strokeColor=none;fillColor=none;align=left;verticalAlign=middle;spacingLeft=4;spacingRight=4;overflow=hidden;rotatable=0;points=[[0,0.5],[1,0.5]];portConstraint=eastwest;fontStyle=1" vertex="1" parent="UVDkIVhwBO7AHF0Bjt_--21">
          <mxGeometry y="26" width="220" height="26" as="geometry" />
        </mxCell>
        <mxCell id="UVDkIVhwBO7AHF0Bjt_--23" value="- m_filterp: VInFilter*" style="text;strokeColor=none;fillColor=none;align=left;verticalAlign=middle;spacingLeft=4;spacingRight=4;overflow=hidden;rotatable=0;points=[[0,0.5],[1,0.5]];portConstraint=eastwest;" vertex="1" parent="UVDkIVhwBO7AHF0Bjt_--21">
          <mxGeometry y="52" width="220" height="26" as="geometry" />
        </mxCell>
        <mxCell id="UVDkIVhwBO7AHF0Bjt_--24" value="- m_symp: V3ParseSym*    // 符号表" style="text;strokeColor=none;fillColor=none;align=left;verticalAlign=top;spacingLeft=4;spacingRight=4;overflow=hidden;rotatable=0;points=[[0,0.5],[1,0.5]];portConstraint=eastwest;fontStyle=1" vertex="1" parent="UVDkIVhwBO7AHF0Bjt_--21">
          <mxGeometry y="78" width="220" height="26" as="geometry" />
        </mxCell>
        <mxCell id="UVDkIVhwBO7AHF0Bjt_--25" value="- m_lexerp: V3Lexer*" style="text;strokeColor=none;fillColor=none;align=left;verticalAlign=middle;spacingLeft=4;spacingRight=4;overflow=hidden;rotatable=0;points=[[0,0.5],[1,0.5]];portConstraint=eastwest;" vertex="1" parent="UVDkIVhwBO7AHF0Bjt_--21">
          <mxGeometry y="104" width="220" height="26" as="geometry" />
        </mxCell>
        <mxCell id="UVDkIVhwBO7AHF0Bjt_--26" value="- s_parsep: static V3ParseImp*  //this" style="text;strokeColor=none;fillColor=none;align=left;verticalAlign=middle;spacingLeft=4;spacingRight=4;overflow=hidden;rotatable=0;points=[[0,0.5],[1,0.5]];portConstraint=eastwest;fontStyle=1" vertex="1" parent="UVDkIVhwBO7AHF0Bjt_--21">
          <mxGeometry y="130" width="220" height="26" as="geometry" />
        </mxCell>
        <mxCell id="UVDkIVhwBO7AHF0Bjt_--27" value="" style="line;strokeWidth=1;fillColor=none;align=left;verticalAlign=middle;spacingTop=-1;spacingLeft=3;spacingRight=3;rotatable=0;labelPosition=right;points=[];portConstraint=eastwest;" vertex="1" parent="UVDkIVhwBO7AHF0Bjt_--21">
          <mxGeometry y="156" width="220" height="8" as="geometry" />
        </mxCell>
        <mxCell id="UVDkIVhwBO7AHF0Bjt_--28" value="+ parseFile(FileLine*, modfilename, &#xa;        inLibrary, errmsg): void" style="text;strokeColor=none;fillColor=none;align=left;verticalAlign=top;spacingLeft=4;spacingRight=4;overflow=hidden;rotatable=0;points=[[0,0.5],[1,0.5]];portConstraint=eastwest;" vertex="1" parent="UVDkIVhwBO7AHF0Bjt_--21">
          <mxGeometry y="164" width="220" height="36" as="geometry" />
        </mxCell>
        <mxCell id="UVDkIVhwBO7AHF0Bjt_--29" value="- lexFile(modname): void" style="text;strokeColor=none;fillColor=none;align=left;verticalAlign=top;spacingLeft=4;spacingRight=4;overflow=hidden;rotatable=0;points=[[0,0.5],[1,0.5]];portConstraint=eastwest;" vertex="1" parent="UVDkIVhwBO7AHF0Bjt_--21">
          <mxGeometry y="200" width="220" height="26" as="geometry" />
        </mxCell>
        <mxCell id="UVDkIVhwBO7AHF0Bjt_--30" value="friend" style="endArrow=open;endFill=1;endSize=12;html=1;exitX=0.5;exitY=0;exitDx=0;exitDy=0;edgeStyle=orthogonalEdgeStyle;" edge="1" parent="1" source="UVDkIVhwBO7AHF0Bjt_--1" target="UVDkIVhwBO7AHF0Bjt_--21">
          <mxGeometry width="160" relative="1" as="geometry">
            <mxPoint x="-980" y="360" as="sourcePoint" />
            <mxPoint x="-495" y="320" as="targetPoint" />
          </mxGeometry>
        </mxCell>
        <mxCell id="UVDkIVhwBO7AHF0Bjt_--31" value="V3PreShellImp (final)" style="swimlane;fontStyle=1;align=center;verticalAlign=top;childLayout=stackLayout;horizontal=1;startSize=26;horizontalStack=0;resizeParent=1;resizeParentMax=0;resizeLast=0;collapsible=1;marginBottom=0;fillColor=#dae8fc;strokeColor=#6c8ebf;" vertex="1" parent="1">
          <mxGeometry x="-1120" y="40" width="220" height="34" as="geometry">
            <mxRectangle x="-276.5" y="404" width="140" height="26" as="alternateBounds" />
          </mxGeometry>
        </mxCell>
        <mxCell id="UVDkIVhwBO7AHF0Bjt_--37" value="" style="line;strokeWidth=1;fillColor=none;align=left;verticalAlign=middle;spacingTop=-1;spacingLeft=3;spacingRight=3;rotatable=0;labelPosition=right;points=[];portConstraint=eastwest;" vertex="1" parent="UVDkIVhwBO7AHF0Bjt_--31">
          <mxGeometry y="26" width="220" height="8" as="geometry" />
        </mxCell>
        <mxCell id="UVDkIVhwBO7AHF0Bjt_--40" value="V3PreProcImp (final)" style="swimlane;fontStyle=1;align=center;verticalAlign=top;childLayout=stackLayout;horizontal=1;startSize=26;horizontalStack=0;resizeParent=1;resizeParentMax=0;resizeLast=0;collapsible=1;marginBottom=0;fillColor=#dae8fc;strokeColor=#6c8ebf;" vertex="1" parent="1">
          <mxGeometry x="-860" y="40" width="220" height="34" as="geometry">
            <mxRectangle x="-276.5" y="404" width="140" height="26" as="alternateBounds" />
          </mxGeometry>
        </mxCell>
        <mxCell id="UVDkIVhwBO7AHF0Bjt_--41" value="" style="line;strokeWidth=1;fillColor=none;align=left;verticalAlign=middle;spacingTop=-1;spacingLeft=3;spacingRight=3;rotatable=0;labelPosition=right;points=[];portConstraint=eastwest;" vertex="1" parent="UVDkIVhwBO7AHF0Bjt_--40">
          <mxGeometry y="26" width="220" height="8" as="geometry" />
        </mxCell>
        <mxCell id="UVDkIVhwBO7AHF0Bjt_--42" value="V3PreLex (final)" style="swimlane;fontStyle=1;align=center;verticalAlign=top;childLayout=stackLayout;horizontal=1;startSize=26;horizontalStack=0;resizeParent=1;resizeParentMax=0;resizeLast=0;collapsible=1;marginBottom=0;fillColor=#dae8fc;strokeColor=#6c8ebf;" vertex="1" parent="1">
          <mxGeometry x="-600" y="40" width="220" height="34" as="geometry">
            <mxRectangle x="-276.5" y="404" width="140" height="26" as="alternateBounds" />
          </mxGeometry>
        </mxCell>
        <mxCell id="UVDkIVhwBO7AHF0Bjt_--43" value="" style="line;strokeWidth=1;fillColor=none;align=left;verticalAlign=middle;spacingTop=-1;spacingLeft=3;spacingRight=3;rotatable=0;labelPosition=right;points=[];portConstraint=eastwest;" vertex="1" parent="UVDkIVhwBO7AHF0Bjt_--42">
          <mxGeometry y="26" width="220" height="8" as="geometry" />
        </mxCell>
        <mxCell id="UVDkIVhwBO7AHF0Bjt_--44" value="FileLineSingleton (final)" style="swimlane;fontStyle=1;align=center;verticalAlign=top;childLayout=stackLayout;horizontal=1;startSize=26;horizontalStack=0;resizeParent=1;resizeParentMax=0;resizeLast=0;collapsible=1;marginBottom=0;fillColor=#dae8fc;strokeColor=#6c8ebf;" vertex="1" parent="1">
          <mxGeometry x="-1120" y="400" width="260" height="159" as="geometry">
            <mxRectangle x="-276.5" y="404" width="140" height="26" as="alternateBounds" />
          </mxGeometry>
        </mxCell>
        <mxCell id="UVDkIVhwBO7AHF0Bjt_--57" value="- m_namemap: std::map&lt;const string, int&gt;" style="text;strokeColor=none;fillColor=none;align=left;verticalAlign=top;spacingLeft=4;spacingRight=4;overflow=hidden;rotatable=0;points=[[0,0.5],[1,0.5]];portConstraint=eastwest;" vertex="1" parent="UVDkIVhwBO7AHF0Bjt_--44">
          <mxGeometry y="26" width="260" height="25" as="geometry" />
        </mxCell>
        <mxCell id="UVDkIVhwBO7AHF0Bjt_--63" value="- m_names: std::deque&lt;string&gt;" style="text;strokeColor=none;fillColor=none;align=left;verticalAlign=top;spacingLeft=4;spacingRight=4;overflow=hidden;rotatable=0;points=[[0,0.5],[1,0.5]];portConstraint=eastwest;" vertex="1" parent="UVDkIVhwBO7AHF0Bjt_--44">
          <mxGeometry y="51" width="260" height="25" as="geometry" />
        </mxCell>
        <mxCell id="UVDkIVhwBO7AHF0Bjt_--45" value="" style="line;strokeWidth=1;fillColor=none;align=left;verticalAlign=middle;spacingTop=-1;spacingLeft=3;spacingRight=3;rotatable=0;labelPosition=right;points=[];portConstraint=eastwest;" vertex="1" parent="UVDkIVhwBO7AHF0Bjt_--44">
          <mxGeometry y="76" width="260" height="8" as="geometry" />
        </mxCell>
        <mxCell id="UVDkIVhwBO7AHF0Bjt_--64" value="+ nameToNumber(const string&amp; filename): int" style="text;strokeColor=none;fillColor=none;align=left;verticalAlign=top;spacingLeft=4;spacingRight=4;overflow=hidden;rotatable=0;points=[[0,0.5],[1,0.5]];portConstraint=eastwest;" vertex="1" parent="UVDkIVhwBO7AHF0Bjt_--44">
          <mxGeometry y="84" width="260" height="25" as="geometry" />
        </mxCell>
        <mxCell id="UVDkIVhwBO7AHF0Bjt_--65" value="+ numberToName(int filenameno): string" style="text;strokeColor=none;fillColor=none;align=left;verticalAlign=top;spacingLeft=4;spacingRight=4;overflow=hidden;rotatable=0;points=[[0,0.5],[1,0.5]];portConstraint=eastwest;" vertex="1" parent="UVDkIVhwBO7AHF0Bjt_--44">
          <mxGeometry y="109" width="260" height="25" as="geometry" />
        </mxCell>
        <mxCell id="UVDkIVhwBO7AHF0Bjt_--66" value="+ filenameLetters(int fileno): static string" style="text;strokeColor=none;fillColor=none;align=left;verticalAlign=top;spacingLeft=4;spacingRight=4;overflow=hidden;rotatable=0;points=[[0,0.5],[1,0.5]];portConstraint=eastwest;" vertex="1" parent="UVDkIVhwBO7AHF0Bjt_--44">
          <mxGeometry y="134" width="260" height="25" as="geometry" />
        </mxCell>
        <mxCell id="UVDkIVhwBO7AHF0Bjt_--46" value="friend" style="endArrow=open;endFill=1;endSize=12;html=1;exitX=0.5;exitY=0;exitDx=0;exitDy=0;edgeStyle=orthogonalEdgeStyle;" edge="1" parent="1" source="UVDkIVhwBO7AHF0Bjt_--1" target="UVDkIVhwBO7AHF0Bjt_--42">
          <mxGeometry width="160" relative="1" as="geometry">
            <mxPoint x="-574" y="424" as="sourcePoint" />
            <mxPoint x="-220" y="276" as="targetPoint" />
          </mxGeometry>
        </mxCell>
        <mxCell id="UVDkIVhwBO7AHF0Bjt_--47" value="friend" style="endArrow=open;endFill=1;endSize=12;html=1;exitX=0.5;exitY=0;exitDx=0;exitDy=0;edgeStyle=orthogonalEdgeStyle;" edge="1" parent="1" source="UVDkIVhwBO7AHF0Bjt_--1" target="UVDkIVhwBO7AHF0Bjt_--40">
          <mxGeometry width="160" relative="1" as="geometry">
            <mxPoint x="-574" y="424" as="sourcePoint" />
            <mxPoint x="-480" y="84" as="targetPoint" />
          </mxGeometry>
        </mxCell>
        <mxCell id="UVDkIVhwBO7AHF0Bjt_--48" value="friend" style="endArrow=open;endFill=1;endSize=12;html=1;exitX=0.5;exitY=0;exitDx=0;exitDy=0;edgeStyle=orthogonalEdgeStyle;" edge="1" parent="1" source="UVDkIVhwBO7AHF0Bjt_--1" target="UVDkIVhwBO7AHF0Bjt_--31">
          <mxGeometry width="160" relative="1" as="geometry">
            <mxPoint x="-574" y="424" as="sourcePoint" />
            <mxPoint x="-740" y="84" as="targetPoint" />
          </mxGeometry>
        </mxCell>
        <mxCell id="UVDkIVhwBO7AHF0Bjt_--50" value="VFileContent (final)" style="swimlane;fontStyle=1;align=center;verticalAlign=top;childLayout=stackLayout;horizontal=1;startSize=26;horizontalStack=0;resizeParent=1;resizeParentMax=0;resizeLast=0;collapsible=1;marginBottom=0;fillColor=#dae8fc;strokeColor=#6c8ebf;" vertex="1" parent="1">
          <mxGeometry x="-280" y="400" width="220" height="134" as="geometry">
            <mxRectangle x="-276.5" y="404" width="140" height="26" as="alternateBounds" />
          </mxGeometry>
        </mxCell>
        <mxCell id="UVDkIVhwBO7AHF0Bjt_--52" value="- m_id: int" style="text;strokeColor=none;fillColor=none;align=left;verticalAlign=top;spacingLeft=4;spacingRight=4;overflow=hidden;rotatable=0;points=[[0,0.5],[1,0.5]];portConstraint=eastwest;" vertex="1" parent="UVDkIVhwBO7AHF0Bjt_--50">
          <mxGeometry y="26" width="220" height="25" as="geometry" />
        </mxCell>
        <mxCell id="UVDkIVhwBO7AHF0Bjt_--53" value="- m_lines: std::deque&lt;string&gt;" style="text;strokeColor=none;fillColor=none;align=left;verticalAlign=top;spacingLeft=4;spacingRight=4;overflow=hidden;rotatable=0;points=[[0,0.5],[1,0.5]];portConstraint=eastwest;fontStyle=1" vertex="1" parent="UVDkIVhwBO7AHF0Bjt_--50">
          <mxGeometry y="51" width="220" height="25" as="geometry" />
        </mxCell>
        <mxCell id="UVDkIVhwBO7AHF0Bjt_--51" value="" style="line;strokeWidth=1;fillColor=none;align=left;verticalAlign=middle;spacingTop=-1;spacingLeft=3;spacingRight=3;rotatable=0;labelPosition=right;points=[];portConstraint=eastwest;" vertex="1" parent="UVDkIVhwBO7AHF0Bjt_--50">
          <mxGeometry y="76" width="220" height="8" as="geometry" />
        </mxCell>
        <mxCell id="UVDkIVhwBO7AHF0Bjt_--54" value="+ pushText(const string&amp; text): void" style="text;strokeColor=none;fillColor=none;align=left;verticalAlign=top;spacingLeft=4;spacingRight=4;overflow=hidden;rotatable=0;points=[[0,0.5],[1,0.5]];portConstraint=eastwest;" vertex="1" parent="UVDkIVhwBO7AHF0Bjt_--50">
          <mxGeometry y="84" width="220" height="25" as="geometry" />
        </mxCell>
        <mxCell id="UVDkIVhwBO7AHF0Bjt_--55" value="+ getLine(int lineno): string" style="text;strokeColor=none;fillColor=none;align=left;verticalAlign=top;spacingLeft=4;spacingRight=4;overflow=hidden;rotatable=0;points=[[0,0.5],[1,0.5]];portConstraint=eastwest;" vertex="1" parent="UVDkIVhwBO7AHF0Bjt_--50">
          <mxGeometry y="109" width="220" height="25" as="geometry" />
        </mxCell>
        <mxCell id="UVDkIVhwBO7AHF0Bjt_--56" value="1" style="endArrow=open;html=1;endSize=12;startArrow=diamondThin;startSize=14;startFill=0;edgeStyle=orthogonalEdgeStyle;align=left;verticalAlign=bottom;" edge="1" parent="1" source="UVDkIVhwBO7AHF0Bjt_--2" target="UVDkIVhwBO7AHF0Bjt_--50">
          <mxGeometry x="-1" y="3" relative="1" as="geometry">
            <mxPoint x="-840" y="425" as="sourcePoint" />
            <mxPoint x="-620" y="460" as="targetPoint" />
          </mxGeometry>
        </mxCell>
        <mxCell id="UVDkIVhwBO7AHF0Bjt_--62" value="friend" style="endArrow=open;startArrow=open;html=1;startFill=0;endFill=0;edgeStyle=orthogonalEdgeStyle;endSize=12;startSize=12;" edge="1" parent="1" source="UVDkIVhwBO7AHF0Bjt_--44" target="UVDkIVhwBO7AHF0Bjt_--1">
          <mxGeometry width="50" height="50" relative="1" as="geometry">
            <mxPoint x="-820" y="610" as="sourcePoint" />
            <mxPoint x="-770" y="560" as="targetPoint" />
          </mxGeometry>
        </mxCell>
      </root>
    </mxGraphModel>
  </diagram>
</mxfile>
